<?xml version="1.0" encoding="UTF-8"?> <!-- Generator: Adobe Illustrator 16.0.0, SVG Export Plug-In . SVG Version: 6.00 Build 0) --> <svg xmlns="http://www.w3.org/2000/svg" xmlns:xlink="http://www.w3.org/1999/xlink" id="Layer_1" x="0px" y="0px" width="89px" height="90px" viewBox="0 0 89 90" xml:space="preserve"> <path fill="#E7E8E8" d="M39.952,47.221c0,4.393-2.887,7.984-6.418,7.984c-3.53,0-6.418,3.594-6.418,7.982v0.938 c0,4.391,3.594,7.985,7.985,7.985h12.306c4.392,0,7.984-3.595,7.984-7.985v-0.7c0-4.393,3.593-7.984,7.984-7.984h7.34 c4.392,0,7.984-3.592,7.984-7.985V46.52c0-4.389-3.593-7.982-7.984-7.982h-3.761c-4.393,0-7.986-3.593-7.986-7.986V29.67 c0-4.394-3.591-7.984-7.984-7.984H18.856c-4.392,0-7.984,3.591-7.984,7.984v0.936c0,4.391,3.593,7.982,7.984,7.982h13.111 c4.393,0,7.985,3.594,7.985,7.984V47.221z"></path> <g> <g> <path fill="#FFFFFF" d="M61.648,46.936c3.471-1.825,5.835-5.465,5.835-9.656c0-2.473-0.833-4.744-2.219-6.572 c-0.001-0.01-0.004-0.024-0.004-0.024c-0.017-0.019-0.035-0.036-0.053-0.056c-0.541-0.703-1.158-1.342-1.852-1.893 c0.843-1.129,1.534-2.748,1.615-5.052c0.013-0.319-0.062-0.56-0.062-0.56c-1.191,1.57-2.863,2.529-4.629,3.205 c-1.171-0.826-2.324-1.52-3.44-2.096c0.088-0.014,0.143-0.021,0.143-0.021c-1.891-0.853-3.744-1.793-6.678-2.335 c-3.32-0.708-5.517-0.454-5.517-0.454c-6.575,0-9.335,1.5-12.195,2.789c0,0,0.031,0.005,0.075,0.01 c-1.32,0.668-2.43,1.367-3.328,2.016c-1.68-0.67-3.264-1.61-4.4-3.113c0,0-0.077,0.24-0.062,0.56 c0.08,2.304,0.772,3.923,1.613,5.052c-2.514,1.998-4.128,5.082-4.128,8.545c0,4.665,2.932,8.646,7.052,10.205 c-1.446,2.168-3.681,7.742,3.702,12.355c1.181,0.74,2.293,1.41,3.353,2.042h-0.001c-0.094,0.202,6.508,4.007,6.61,4.065 c2.932,2.03,4.561,3.885,4.5,6.562c0,0,2.384-0.923,5.388-2.792c1.915-1.19,3.469-3.026,5.028-4.129 C64.53,60.959,68.296,52.768,61.648,46.936z"></path> </g> <path fill="#F37523" stroke="#787777" stroke-width="0.9262" stroke-linecap="round" stroke-linejoin="round" stroke-miterlimit="10" d=" M43.351,65.566c-0.922-0.354-1.771-0.756-2.545-1.193c4.184,2.598,6.57,4.629,6.498,7.863c0,0,2.428-0.855,5.387-2.792 c1.76-1.151,3.314-2.422,4.657-3.764C55.266,67.457,50.025,68.133,43.351,65.566"></path> <path fill="none" stroke="#7B7878" stroke-width="0.9262" stroke-miterlimit="10" d="M40.806,64.373 c-0.324-0.201-0.659-0.404-1.006-0.615C40.121,63.971,40.455,64.177,40.806,64.373"></path> <path fill="none" stroke="#7B7878" stroke-width="0.9262" stroke-miterlimit="10" d="M57.348,65.681 c0.138-0.118,0.261-0.24,0.37-0.366c-0.009,0.008-0.02,0.015-0.032,0.023C57.574,65.453,57.462,65.568,57.348,65.681"></path> <path fill="#F37523" stroke="#787777" stroke-width="1.1114" stroke-linecap="round" stroke-linejoin="round" stroke-miterlimit="10" d=" M44.513,33.899c0.549-5.213,4.446-7.321,6.157-8.226c2.282-1.209,6.038-1.736,6.038-1.736c-2.86-1.289-5.621-2.787-12.195-2.787 c-6.575,0-9.334,1.498-12.194,2.787c0,0,3.754,0.527,6.038,1.736C40.066,26.578,43.964,28.687,44.513,33.899"></path> <path fill="#787777" stroke="#787777" stroke-width="0.9262" stroke-linecap="round" stroke-linejoin="round" stroke-miterlimit="10" d=" M42.121,43.598c1.453,2.734,2.368,4.07,2.368,4.07s0.914-1.336,2.366-4.07c-1.194-1.554-2.027-3.403-2.366-5.418 C44.149,40.194,43.317,42.044,42.121,43.598"></path> <path fill="none" stroke="#787777" stroke-width="1.1114" stroke-linecap="round" stroke-linejoin="round" stroke-miterlimit="10" d=" M39.799,63.758c-1.992-1.203-4.332-2.547-6.959-4.189c-7.382-4.615-5.147-10.188-3.701-12.358c-4.12-1.558-7.05-5.54-7.05-10.205 c0-3.461,1.612-6.546,4.127-8.544c-0.841-1.127-1.533-2.746-1.614-5.051c-0.014-0.32,0.062-0.561,0.062-0.561 c2.401,3.174,6.796,3.86,9.892,4.734c1.996,0.562,3.876,1.93,5.051,3.242c0.672,0.638,1.22,1.406,1.604,2.265 c-0.994-1.837-2.938-3.085-5.173-3.085c-3.247,0-5.88,2.633-5.88,5.881c0,3.246,2.633,5.881,5.88,5.881 c2.526,0,4.68-1.596,5.512-3.832"></path> <path fill="#787777" d="M32.605,35.842c0,1.912,1.551,3.461,3.462,3.461s3.46-1.549,3.46-3.461c0-1.91-1.549-3.461-3.46-3.461 S32.605,33.932,32.605,35.842"></path> <path fill="none" stroke="#787777" stroke-width="1.1114" stroke-linecap="round" stroke-linejoin="round" stroke-miterlimit="10" d=" M61.377,46.663c3.467-1.827,5.833-5.466,5.833-9.658c0-3.461-1.611-6.546-4.128-8.544c0.842-1.127,1.533-2.746,1.615-5.051 c0.015-0.32-0.064-0.561-0.064-0.561c-2.4,3.174-6.795,3.86-9.891,4.734c-2.005,0.564-3.892,1.939-5.064,3.259 c-0.787,0.75-1.401,1.681-1.778,2.726c0.921-2.047,2.974-3.47,5.36-3.47c3.248,0,5.882,2.634,5.882,5.882 c0,3.247-2.634,5.879-5.882,5.879c-2.392,0-4.451-1.433-5.368-3.487"></path> <path fill="#787777" d="M56.692,35.842c0-1.91-1.549-3.461-3.46-3.461c-1.912,0-3.461,1.551-3.461,3.461 c0,1.912,1.549,3.461,3.461,3.461C55.144,39.303,56.692,37.754,56.692,35.842"></path> <path fill="#F37523" stroke="#787777" stroke-width="0.8763" stroke-linecap="round" stroke-linejoin="round" stroke-miterlimit="10" d=" M48.654,48.753c-0.484,0.574-4.473,6.987,3.272,10.211c5.066,2.106,6.444,5.286,5.791,6.251c0,0,6.128-4.061,6.871-9.227 C66.206,44.732,53.814,41.833,48.654,48.753z"></path> <path fill="#F37523" stroke="#787777" stroke-width="0.8763" stroke-linecap="round" stroke-linejoin="round" stroke-miterlimit="10" d=" M28.973,47.146c0,0,5.146-3.244,8.556,0.521c0,0-7.313,5.747-0.669,14.236c0,0-7.83-2.746-9.12-8.936 C26.992,49.383,28.973,47.146,28.973,47.146z"></path> </g> </svg> 